<svg width="23" height="20" viewBox="0 0 23 20" fill="none" xmlns="http://www.w3.org/2000/svg">
<path d="M13.0525 1.17614C12.846 0.818548 12.5491 0.521601 12.1915 0.315146C11.8339 0.10869 11.4282 0 11.0153 0C10.6024 0 10.1968 0.10869 9.83918 0.315146C9.48158 0.521601 9.18464 0.818548 8.97818 1.17614L0.315067 16.181C0.108646 16.5386 -1.68972e-05 16.9443 1.97081e-09 17.3572C1.69011e-05 17.7701 0.108713 18.1757 0.315164 18.5333C0.521615 18.8908 0.818548 19.1878 1.17612 19.3942C1.5337 19.6007 1.93932 19.7094 2.35221 19.7094H19.6784C20.0913 19.7094 20.4969 19.6007 20.8545 19.3942C21.2121 19.1878 21.509 18.8908 21.7155 18.5333C21.9219 18.1757 22.0306 17.7701 22.0306 17.3572C22.0307 16.9443 21.922 16.5386 21.7156 16.181L13.0525 1.17614ZM20.4433 17.7988C20.3671 17.9342 20.2558 18.0465 20.1213 18.1242C19.9867 18.2019 19.8338 18.242 19.6784 18.2404H2.35221C2.19718 18.2404 2.04487 18.1996 1.9106 18.1221C1.77634 18.0445 1.66484 17.933 1.58733 17.7988C1.50981 17.6645 1.469 17.5122 1.469 17.3572C1.469 17.2021 1.50981 17.0498 1.58733 16.9156L10.2504 1.91066C10.328 1.77639 10.4394 1.66489 10.5737 1.58737C10.708 1.50985 10.8603 1.46904 11.0153 1.46904C11.1704 1.46904 11.3227 1.50985 11.4569 1.58737C11.5912 1.66489 11.7027 1.77639 11.7802 1.91066L20.4433 16.9156C20.5224 17.0493 20.5641 17.2018 20.5641 17.3572C20.5641 17.5125 20.5224 17.6651 20.4433 17.7988Z" fill="#F2D30E"/>
<path d="M11.0157 15.2212C10.8619 15.2212 10.7116 15.2668 10.5838 15.3522C10.4559 15.4376 10.3563 15.559 10.2975 15.7011C10.2386 15.8431 10.2232 15.9994 10.2532 16.1502C10.2832 16.301 10.3573 16.4396 10.466 16.5483C10.5747 16.657 10.7132 16.731 10.864 16.761C11.0148 16.791 11.1711 16.7756 11.3132 16.7168C11.4552 16.6579 11.5766 16.5583 11.662 16.4305C11.7475 16.3026 11.7931 16.1523 11.7931 15.9986C11.7931 15.8965 11.7729 15.7954 11.7339 15.7011C11.6948 15.6068 11.6375 15.5211 11.5654 15.4489C11.4932 15.3767 11.4075 15.3194 11.3132 15.2804C11.2188 15.2413 11.1177 15.2212 11.0157 15.2212Z" fill="#F2D30E"/>
<path d="M11.0157 5.69238C10.8581 5.69238 10.7022 5.72449 10.5574 5.78675C10.4126 5.84901 10.282 5.94011 10.1736 6.0545C10.0652 6.16889 9.98121 6.30417 9.9268 6.45208C9.87239 6.59999 9.84869 6.75744 9.85714 6.91482L10.2267 13.8001C10.2298 13.8587 10.2553 13.9138 10.2979 13.9541C10.3404 13.9944 10.3968 14.0169 10.4555 14.0169H11.576C11.6346 14.0169 11.691 13.9944 11.7336 13.9541C11.7761 13.9138 11.8016 13.8587 11.8047 13.8001L12.1743 6.91482C12.1827 6.75744 12.159 6.59999 12.1046 6.45208C12.0502 6.30417 11.9662 6.16889 11.8578 6.0545C11.7494 5.94011 11.6188 5.84901 11.4741 5.78675C11.3293 5.72449 11.1733 5.69238 11.0157 5.69238Z" fill="#F2D30E"/>
</svg>
