<svg width="15" height="15" viewBox="0 0 15 15" fill="none" xmlns="http://www.w3.org/2000/svg">
<path d="M14.7954 1.15909C14.9321 1.02947 15.0003 0.870384 15 0.681819C15.0003 0.493254 14.9321 0.330375 14.7954 0.193183C14.6658 0.0641287 14.5067 -0.00026532 14.3182 1.0153e-06C14.1296 -0.000294913 13.9667 0.0640991 13.8295 0.193183L7.5 6.53409L1.15909 0.193183C1.02947 0.0640991 0.870384 -0.000294913 0.681819 1.0153e-06C0.493254 -0.00026532 0.330375 0.0641287 0.193183 0.193183C0.0641287 0.330375 -0.00026532 0.493254 1.0153e-06 0.681819C-0.000294913 0.870384 0.0640991 1.02947 0.193183 1.15909L6.53409 7.5L0.193183 13.8295C0.0640991 13.9667 -0.000294913 14.1296 1.0153e-06 14.3182C-0.00026532 14.5067 0.0641287 14.6658 0.193183 14.7954C0.330375 14.9321 0.493254 15.0003 0.681819 15C0.870384 15.0003 1.02947 14.9321 1.15909 14.7954L7.5 8.46591L13.8295 14.7954C13.9667 14.9321 14.1296 15.0003 14.3182 15C14.5067 15.0003 14.6658 14.9321 14.7954 14.7954C14.9321 14.6658 15.0003 14.5067 15 14.3182C15.0003 14.1296 14.9321 13.9667 14.7954 13.8295L8.46591 7.5L14.7954 1.15909Z" fill="#D40D0D"/>
</svg>
