<svg width="1300" height="146" viewBox="0 0 1300 146" fill="none" xmlns="http://www.w3.org/2000/svg">
<path fill-rule="evenodd" clip-rule="evenodd" d="M130.742 1.15208L113.225 29.2895H60.6767C51.0703 29.2895 41.3145 28.3747 37.3222 35.4215C35.2512 39.3775 35.2512 44.3721 37.3222 48.254C41.4642 54.9546 51.0704 54.3858 57.6826 54.3858H80.6881C99.901 54.3858 113.076 57.5507 123.755 76.1937C131.29 88.68 130.517 112.021 122.407 125.793C112.077 143.496 94.3618 143.719 77.0452 143.719H1.01722V115.581H65.5921C72.0048 115.581 86.6766 116.496 91.3675 108.535C93.6381 104.578 93.6381 99.5839 91.3675 95.4794C87.0259 88.4327 77.4196 89.3476 70.8572 89.3476H47.5021C31.3333 89.3476 16.0379 86.1827 5.70786 68.1084C-1.82758 55.0534 -1.97729 32.8253 5.70786 19.795C17.5849 -0.5293 43.1606 1.17668 56.3351 1.17668L130.742 1.15208Z" fill="url(#paint0_linear_1141_34974)"/>
<path fill-rule="evenodd" clip-rule="evenodd" d="M201.154 0.802102C219.02 -1.02758 254.251 -1.59629 271.693 20.5577C288.984 42.3655 289.908 83.0634 282.023 106.553C275.411 126.16 266.228 137.311 246.067 142.38C229.699 146.336 183.987 148.512 164.2 131.154C145.536 114.712 141.644 78.0443 144.838 57.6458C147.682 39.3737 154.095 16.4532 177.226 6.14273C185.135 2.63172 194.018 1.37079 201.154 0.802102ZM179.146 69.5882C179.371 54.6293 183.139 39.5469 202.152 32.8215C210.836 29.8545 229.425 30.7692 238.881 38.261C251.831 48.4973 252.829 70.9234 251.482 80.3685C250.134 92.2861 246.217 103.858 231.545 110.558C221.789 115.009 205.57 115.206 195.39 108.728C179.87 98.5168 178.947 81.7284 179.146 69.5882Z" fill="url(#paint1_linear_1141_34974)"/>
<path fill-rule="evenodd" clip-rule="evenodd" d="M338.765 1.15011V96.4665V115.653H401.418L385.624 143.791H304.53V48.4744V1.07587H338.765V1.15011Z" fill="url(#paint2_linear_1141_34974)"/>
<path fill-rule="evenodd" clip-rule="evenodd" d="M508.709 1.14825C517.393 24.9836 534.834 72.6047 543.517 96.4647C547.859 108.308 556.617 132.02 561.033 143.863C552.001 143.863 533.911 143.863 524.878 143.863C522.458 137.385 517.543 124.404 515.122 117.976C506.863 117.976 490.42 117.976 482.161 117.976C477.969 110.929 469.635 96.7366 465.418 89.6157C460.228 103.165 449.748 130.314 444.558 143.863C435.301 143.863 416.862 143.863 407.68 143.863C416.513 120.028 434.104 72.4069 442.837 48.5468C447.253 36.7034 456.086 12.9917 460.552 1.14825C472.529 1.14825 496.658 1.14825 508.709 1.14825ZM466.192 87.3658C471.107 73.8904 480.863 46.9396 485.779 33.4642C490.545 46.9396 500.151 73.8904 504.992 87.3658C495.235 87.3658 475.873 87.3658 466.192 87.3658Z" fill="url(#paint3_linear_1141_34974)"/>
<path fill-rule="evenodd" clip-rule="evenodd" d="M573.634 1.1489H651.009C665.107 1.1489 679.629 0.382371 692.23 16.2561C702.41 29.3111 702.56 51.6629 699.565 63.2344C696.92 74.0394 691.656 81.7289 680.203 86.946C672.867 90.3333 668.326 90.4818 663.26 90.9021L698.867 143.889H658.994L608.017 66.6465V143.889H573.784V48.5722V1.17349M607.868 62.542V29.311H637.411C643.025 29.311 658.844 28.1738 663.959 37.1491C666.23 41.2288 666.379 49.9816 663.385 55.075C658.47 63.2591 647.017 62.542 636.687 62.542H607.868Z" fill="url(#paint4_linear_1141_34974)"/>
<path fill-rule="evenodd" clip-rule="evenodd" d="M849.202 1.14566L832.26 31.7556H797.228C783.704 31.7556 766.537 30.6182 756.356 48.3216C749.594 60.4618 749.245 86.0032 756.356 97.7725C765.763 113.646 780.285 113.226 793.584 113.226H810.527V87.6846H773.997V57.2722H844.76V143.836H781.533C762.869 143.836 740.088 142.501 725.99 119.012C711.319 94.7313 711.693 49.8052 725.641 25.9699C739.589 1.34341 765.014 1.14566 783.03 1.14566H849.202Z" fill="url(#paint5_linear_1141_34974)"/>
<path fill-rule="evenodd" clip-rule="evenodd" d="M956.495 1.14825L991.302 96.4647L1008.82 143.863H972.663L962.907 117.976H929.946L913.204 89.6157L892.344 143.863H855.465L890.622 48.5468L908.338 1.14825H956.495ZM913.927 87.3658L933.514 33.4642L952.727 87.3658H913.927Z" fill="url(#paint6_linear_1141_34974)"/>
<path fill-rule="evenodd" clip-rule="evenodd" d="M1021.42 1.1489H1098.8C1112.89 1.1489 1127.42 0.382371 1140.02 16.2561C1150.2 29.3111 1150.35 51.6629 1147.35 63.2344C1144.71 74.0394 1139.44 81.7289 1127.99 86.946C1120.65 90.3333 1116.11 90.4818 1111.05 90.9021L1146.65 143.889H1106.78L1055.8 66.6465V143.889H1021.57V48.5722V1.17349M1055.68 62.542V29.311H1085.22C1090.84 29.311 1106.66 28.1738 1111.77 37.1491C1114.04 41.2288 1114.19 49.9816 1111.2 55.075C1106.28 63.2591 1094.83 62.542 1084.5 62.542H1055.68Z" fill="url(#paint7_linear_1141_34974)"/>
<path fill-rule="evenodd" clip-rule="evenodd" d="M1229.82 1.15283C1249.03 1.15283 1274.23 0.584153 1289.25 26.348C1303.35 50.4059 1303.55 94.2192 1290.03 117.708C1275.93 142.335 1255.57 143.447 1233.56 143.818H1164.87V48.5019V1.10333H1229.79M1199.13 113.48V32.554H1219.26C1235.43 32.554 1248.8 31.4167 1258.41 47.6613C1265.75 59.4306 1265.75 85.6889 1258.41 98.373C1249.15 114.939 1232.99 113.48 1218.34 113.48H1199.13Z" fill="url(#paint8_linear_1141_34974)"/>
<defs>
<linearGradient id="paint0_linear_1141_34974" x1="63.1079" y1="137.683" x2="67.8991" y2="2.29219" gradientUnits="userSpaceOnUse">
<stop stop-color="white" stop-opacity="0"/>
<stop offset="1" stop-color="white"/>
</linearGradient>
<linearGradient id="paint1_linear_1141_34974" x1="212.833" y1="139" x2="217.375" y2="1.14783" gradientUnits="userSpaceOnUse">
<stop stop-color="white" stop-opacity="0"/>
<stop offset="1" stop-color="white"/>
</linearGradient>
<linearGradient id="paint2_linear_1141_34974" x1="351.297" y1="137.749" x2="357.768" y2="2.36733" gradientUnits="userSpaceOnUse">
<stop stop-color="white" stop-opacity="0"/>
<stop offset="1" stop-color="white"/>
</linearGradient>
<linearGradient id="paint3_linear_1141_34974" x1="481.702" y1="137.822" x2="485.796" y2="2.25404" gradientUnits="userSpaceOnUse">
<stop stop-color="white" stop-opacity="0"/>
<stop offset="1" stop-color="white"/>
</linearGradient>
<linearGradient id="paint4_linear_1141_34974" x1="635.237" y1="137.846" x2="640.157" y2="2.30388" gradientUnits="userSpaceOnUse">
<stop stop-color="white" stop-opacity="0"/>
<stop offset="1" stop-color="white"/>
</linearGradient>
<linearGradient id="paint5_linear_1141_34974" x1="779.821" y1="137.795" x2="784.499" y2="2.28916" gradientUnits="userSpaceOnUse">
<stop stop-color="white" stop-opacity="0"/>
<stop offset="1" stop-color="white"/>
</linearGradient>
<linearGradient id="paint6_linear_1141_34974" x1="929.487" y1="137.822" x2="933.581" y2="2.25404" gradientUnits="userSpaceOnUse">
<stop stop-color="white" stop-opacity="0"/>
<stop offset="1" stop-color="white"/>
</linearGradient>
<linearGradient id="paint7_linear_1141_34974" x1="1083.02" y1="137.846" x2="1087.94" y2="2.30388" gradientUnits="userSpaceOnUse">
<stop stop-color="white" stop-opacity="0"/>
<stop offset="1" stop-color="white"/>
</linearGradient>
<linearGradient id="paint8_linear_1141_34974" x1="1230.09" y1="137.777" x2="1234.74" y2="2.24467" gradientUnits="userSpaceOnUse">
<stop stop-color="white" stop-opacity="0"/>
<stop offset="1" stop-color="white"/>
</linearGradient>
</defs>
</svg>
